<?xml version="1.0" encoding="utf-8"?>
<!-- Generator: Adobe Illustrator 23.0.2, SVG Export Plug-In . SVG Version: 6.00 Build 0)  -->
<svg version="1.1" id="b143eb5c-1646-401d-af9e-18dec362a251"
	 xmlns="http://www.w3.org/2000/svg" xmlns:xlink="http://www.w3.org/1999/xlink" x="0px" y="0px" viewBox="0 0 914.8 687.6"
	 style="enable-background:new 0 0 914.8 687.6;" xml:space="preserve">
<style type="text/css">
	.st0{opacity:0.4;fill:#439AED;enable-background:new    ;}
	.st1{fill:#3D4956;}
	.st2{fill:#439AED;}
	.st3{opacity:0.1;enable-background:new    ;}
	.st4{fill:#2E3841;}
	.st5{fill:#577B89;}
	.st6{fill:#FFC7BE;}
	.st7{fill:#B36268;}
	.st8{fill:#F2F2F2;}
	.st9{fill:#62B857;}
</style>
<title>voting</title>
<circle class="st0" cx="772.1" cy="242.4" r="21.9"/>
<circle class="st0" cx="309.9" cy="112.5" r="31.2"/>
<circle class="st0" cx="252.1" cy="127.4" r="21.9"/>
<path class="st1" d="M790.5,487.5c-17.3,19-17.9,46.6-17.9,46.6s27.5-3.1,44.8-22.1s17.9-46.6,17.9-46.6S807.8,468.6,790.5,487.5z"
	/>
<path class="st2" d="M800.2,493c-5.2,25.1-27.3,41.8-27.3,41.8s-13.5-24.1-8.3-49.2s27.3-41.8,27.3-41.8S805.5,467.9,800.2,493z"/>
<polygon class="st1" points="777.7,233.6 777.7,533.3 677.8,615.8 166.7,615.8 166.7,301.6 315.9,233.6 "/>
<polygon class="st3" points="777.7,233.6 777.7,234.8 741.9,258.8 677.8,301.6 166.7,301.6 315.9,233.6 "/>
<polygon class="st3" points="777.7,233.6 777.7,533.3 677.8,615.8 678.6,300.9 741.9,258.8 777.2,233.6 "/>
<polygon class="st4" points="643.1,274.8 331.8,274.8 355,261.8 653.2,261.8 "/>
<path class="st4" d="M911.8,632.1c0,0,6,25.2,0.5,26.3s-32.4,0.7-39,1.8s-20.3-0.7-20.3-5.7s14.3-8.2,14.3-8.2s20.3-11,20.8-11.5
	S911.8,632.1,911.8,632.1z"/>
<path class="st5" d="M906.8,483.4c0,0-1.6,18.7-1.6,20.3s1.6,27.4,0,28.5s1.1,8.8,1.1,11.5s8.8,48.3,6.6,65.8s3.3,15.9,1.6,17.6
	s-1.6,1.6-1.6,4.9s-17.6,6-17.6,6l-19.2-121.2l9.9-36.2L906.8,483.4z"/>
<path class="st3" d="M906.8,483.4c0,0-1.6,18.7-1.6,20.3s1.6,27.4,0,28.5s1.1,8.8,1.1,11.5s8.8,48.3,6.6,65.8s3.3,15.9,1.6,17.6
	s-1.6,1.6-1.6,4.9s-17.6,6-17.6,6l-19.2-121.2l9.9-36.2L906.8,483.4z"/>
<path class="st4" d="M904.1,639.8c0,0,5.5,19.8,0,20.8s-32.4-1.3-39-0.2s-20.3,1.3-20.3-3.7s14.3-8.2,14.3-8.2s20.3-11,20.8-11.5
	S904.1,639.8,904.1,639.8z"/>
<path class="st5" d="M911.8,461.5c0,0,6.6,15.9-1.1,24.1s-16.5,24.7-16.5,25.8s15.4,110.3,13.2,117.4s-1.6,11.5-1.1,12.6
	s-5.5,7.1-12.1,7.1s-16.5-4.9-17.6-9.3s1.6-42.2,1.1-49.4s-3.3-17.6-4.4-19.8s-7.1-4.4-8.2-11s-9.9-90.5-7.1-93.3
	S911.8,461.5,911.8,461.5z"/>
<circle class="st6" cx="870.1" cy="316.7" r="18.7"/>
<path class="st6" d="M881.6,326c0,0-3.8,20.3-1.1,22.5s-20.8,5.5-20.8,5.5s-2.7-26.9-3.3-29.6S881.6,326,881.6,326z"/>
<path class="st2" d="M856.4,352.3c0,0,6.6-19.2,33.5-13.7c0,0,4.9,1.6,3.3,3.3s-3.3,1.6-1.1,3.3s4.9,0,3.3,1.6s14.8,11.5,13.7,30.2
	s3.8,45,0,49.4s2.7,23.6,1.6,27.4s6.6,8.8,3.3,10.4s-62.5,11.5-64.2,0s-0.5-3.3-2.2-6s-2.2-7.7-1.1-13.7s3.8-20.8,2.7-26.3
	s0-51.6,3.3-57.1S856.4,352.3,856.4,352.3z"/>
<path class="st6" d="M867.9,486.2c0,0,8.2,31.3-2.2,31.3s-9.9-32.4-9.9-32.4L867.9,486.2z"/>
<path class="st4" d="M861.8,316.7c0,1.6,2.3,2.6,5.9,2.8h0c1.5,0.1,3,0.1,4.5-0.1c2.3-0.2,3.2,1.9,3.6,4.8
	c0.6,4.7-0.3,11.2,0.8,12.2c1.4,1.4,11.7,0,15-3.2c0.5-0.5,0.8-1.1,0.9-1.7c0.3-2,1.3-3.8,2.8-5.1c1.9-2.1,4.6-4.4,7.7-8
	c5.5-6.6,0-7.1-1.6-12.1s-4.4-6.6-4.4-9.9s-12.6-6-23-5.5s-8.2,13.7-8.2,13.7s-0.6,1.6-1.4,3.6c-1,2.6-1.8,5.2-2.4,7.9
	C861.9,316.3,861.8,316.5,861.8,316.7z"/>
<path class="st3" d="M864,360.6c0,0,18.7-1.1,20.3,26.3s1.1,53.2,1.1,53.8s-7.7,52.7-14.8,52.7s-12.6-1.1-14.3-3.8
	s4.4-42.2,4.4-42.2s2.7-41.7-1.6-54.9S854.2,362.2,864,360.6z"/>
<path class="st2" d="M861.3,357.8c0,0,18.7-1.1,20.3,26.3c1.6,27.4,1.1,53.2,1.1,53.8s-7.7,52.7-14.8,52.7s-12.6-1.1-14.3-3.8
	s4.4-42.2,4.4-42.2s2.7-41.7-1.6-54.9S851.4,359.5,861.3,357.8z"/>
<path class="st7" d="M552,89.6c0,0-8.1-23-14-15.8s9,19.4,9,19.4L552,89.6z"/>
<path class="st5" d="M590.4,67.1l-4.9,1.8c0,0-2.3,10.4-1.4,12.2s1.4,0.5,0,4.1s-5.4,13.1-5.9,14.5S552,91,552,86
	c0,0-5.4,6.3-8.1,7.7c0,0,29.8,21.7,33.9,24.4s6.3,1.4,9.9-1.8s19-29.4,19-29.4L590.4,67.1z"/>
<path class="st4" d="M577.3,227.4c0,0,0.5,5,1.4,5.4s7.7,11.7,0,14s-12.2,1.4-14,2.3s-33.4,2.7-33.9-2.3s15.4-5.9,15.4-5.9
	s14.5-9.5,16.7-14.5S577.3,227.4,577.3,227.4z"/>
<path class="st4" d="M668.9,236.4c0,0,10.8,18.5,8.1,20.8s-29.1,10.5-33,10.8c-5,0.5-8.6-3.6-4.5-5.9s12.6-11.7,12.6-14.9v-8.1
	L668.9,236.4z"/>
<path class="st4" d="M679.3,115.4c0,0,9.5,11.7-5.4,30.7l-24.8,31.6c0,0,15.4,24.4,15.8,37s3.6,9.9,4.5,15.4s5,2.7,1.8,6.8
	s-14.9,7.7-18.5,4.5c-2.5-2.3-3.8-5.6-3.6-9c0-1.8-6.3-12.2-6.8-15.4s-17.2-28.9-17.2-28.9s-5.4-15.4,0.9-23.9s10.5-20.8,10.5-20.8
	s-18.6,22.6-31.7,28c0,0-5,0.9-4.1,3.2s0,3.6-1.4,5.9s-10.8,28.5-14,35.2s-1.8,10.8-5.4,13.1s-19.9,0.5-19.9-1.8s2.3-8.1,3.6-11.3
	s12.2-39.7,11.3-46.1s0.5-14.9,7.2-18.5s41.1-33,42.9-33S679.3,115.4,679.3,115.4z"/>
<circle class="st7" cx="588.6" cy="25.5" r="19"/>
<path class="st7" d="M603.9,27.3c0,0,5.9,10.4,13.1,11.7s-19,22.1-19,22.1s-6.3-19.9-11.7-20.8S603.9,27.3,603.9,27.3z"/>
<path class="st5" d="M585.4,69.8c0,5.9,17.6,22.6,17.6,22.6l16.7,14c0,0,0.5,5,2.3,5.4s4.1,0.5,2.3,3.2s-6.3,8.6-2.3,9.5
	c1.2,0.2,2.5,0.3,3.7,0.4c1.1,0.1,2.4,0.1,3.8,0.2c3.3,0.1,7.5,0.2,12.1,0.2c1.3,0,2.6,0,3.9,0c17.1-0.3,36.9-2.3,35.2-8.8
	c-2.7-10.8-0.9-14.5-6.8-20.3s-15.4-26.2-15.4-26.2s-19-32.1-34.8-32.1l-3.3-0.9c-3.1-0.8-6.4,0.4-8.2,3.2
	c-3.2,4.8-8.2,12.1-11.1,14.4c-4.5,3.6-5.2,1-5.2,1S585.4,63.9,585.4,69.8z"/>
<path class="st7" d="M625.6,138.4c0,0-13.1,20.3-5,23.9s12.6-21.2,12.6-21.2L625.6,138.4z"/>
<path class="st4" d="M601,23.4c-0.7-0.1-1-1-1.1-1.7c-0.7-3.9-3.5-7.5-7.4-8.2c-1.5-0.2-3-0.1-4.4,0.4c-2.1,0.6-4,1.5-5.7,2.8
	c-0.8,0.8-1.8,1.4-2.8,1.8c-0.7,0.2-3.7,1.6-4.4,1.8c-1.6,0.5-2.8,2.1-4.4,1.8c-1.5-0.3-2.1-2.2-2.4-3.7c-0.6-3.5,1.4-8.7,3.4-11.7
	c1.5-2.2,4.1-3.5,6.6-4.4c3-0.9,6.1-1.5,9.2-1.8c4.2-0.5,8.6-0.8,12.6,0.5s7.7,4.5,8.5,8.7c0.2,0.9,0.2,1.8,0.4,2.6
	c0.5,2.1,1.9,3.9,2.7,5.9c1.2,3,1.1,6.3-0.3,9.2c-1.1,2.3-3.1,4.4-2.7,6.9l-3.5-2.7c-1-0.6-1.5-1.8-1.2-3l0.5-4.4
	c0.2-0.8,0.1-1.6-0.2-2.4C602.8,19.1,602.2,23.5,601,23.4z"/>
<path class="st3" d="M633.7,107.3l-4.3,17.7c4.3,0.2,10,0.2,16,0.1c1.5-4.6,3-9.3,4.1-13.7c4.1-16.3-2.7-41.1-6.3-52.8
	s-12.6-14.9-12.6-14.9c-3.7,1.3-7.2,3.1-10.4,5.4C614.3,53.1,633.7,107.3,633.7,107.3z"/>
<path class="st3" d="M630.1,106.4l-4.4,18.4c1.1,0.1,2.4,0.1,3.8,0.2c3.3,0.1,7.5,0.2,12.1,0.2c1.6-4.8,3.2-9.9,4.4-14.7
	c4.1-16.3-2.7-41.1-6.3-52.8s-11.5,1.1-11.5,1.1s3.2-7.7-2.7-3.6S630.1,106.4,630.1,106.4z"/>
<path class="st5" d="M628.8,42.7c0,0,9,3.2,12.6,14.9s10.4,36.6,6.3,52.8S635.1,147,635.1,147s-8.6-6.3-11.7-5l8.6-35.7
	c0,0-19.4-54.2-13.5-58.3C621.6,45.8,625.1,44,628.8,42.7z"/>
<polygon class="st8" points="635.5,269.2 510.5,8.8 301.6,109.1 378.5,269.2 "/>
<rect x="352.9" y="137.3" transform="matrix(0.9016 -0.4326 0.4326 0.9016 -20.251 193.1887)" class="st1" width="123.1" height="7.6"/>
<rect x="382.3" y="198.5" transform="matrix(0.9016 -0.4326 0.4326 0.9016 -43.8465 211.9259)" class="st1" width="123.1" height="7.6"/>
<rect x="495.4" y="80.1" transform="matrix(0.9016 -0.4326 0.4326 0.9016 8.9954 230.3212)" class="st1" width="30.6" height="30.6"/>
<rect x="524.8" y="141.3" transform="matrix(0.9016 -0.4326 0.4326 0.9016 -14.6001 249.0583)" class="st1" width="30.6" height="30.6"/>
<polygon class="st9" points="519.7,55.9 508.4,88.2 493.1,82.8 491,88.8 512.2,96.2 525.7,58 "/>
<polygon class="st9" points="549.1,117.1 537.8,149.4 522.5,144.1 520.4,150 541.6,157.5 555.1,119.2 "/>
<g id="b6a4aa65-5bff-4dd4-a595-827386906092">
	
		<rect x="5.4" y="505.8" transform="matrix(0.9779 -0.2089 0.2089 0.9779 -110.9231 18.9503)" class="st8" width="57.7" height="57.7"/>
	<path id="ac286760-ef31-4470-8aba-995faff60c3b" class="st6" d="M66.9,485.3c0,0-20.7,14.8-13.8,20.7s20.7-17.8,20.7-17.8
		L66.9,485.3z"/>
	<path id="ad0ee0d5-d520-47bd-bca9-706ef112ee3c" class="st6" d="M162.7,508c0,0-3.9,49.4-4.9,56.3s-2,69.1-3.9,76
		s-3.9,23.7-3.9,23.7H138c0,0,1-30.6-2-42.5s-2-44.4-2-44.4s-5.9-58.3-3-66.2S162.7,508,162.7,508z"/>
	<path id="a2d865fc-f989-4a0f-bdfe-5d1a04b5cb09" class="st4" d="M146.9,661c0,0,4.9,3,4.9,4.9s-1,6.9,0,8.9s7.9,9.9,3.9,11.8
		s-21.7,0-21.7,0s1-13.8,2-14.8s-1-10.9-1-10.9H146.9z"/>
	<path id="a5afd73e-dc2f-49f8-bb76-01b6bc8ff4ec" class="st6" d="M87.2,506.8c0,0-1.3,49.5-1,56.5s-5.3,68.9-4.1,76s1.4,24,1.4,24
		l11.8,1.2c0,0,2.2-30.5,6.4-42s6.6-44,6.6-44s12-57.3,9.9-65.5S87.2,506.8,87.2,506.8z"/>
	<path id="bae9c969-98bd-41cd-ab49-dced4866e2f9" class="st4" d="M86.9,660.6c0,0-5.2,2.4-5.4,4.4s0.3,7-0.9,8.8s-8.9,9-5.2,11.4
		s21.6,2.3,21.6,2.3s0.5-13.9-0.4-14.9s2.1-10.7,2.1-10.7L86.9,660.6z"/>
	<path id="efa1face-c8d6-4f61-8a17-c81461288bfc" class="st4" d="M148.9,433.9c0,0,7.9,1,10.9,17.8s13.8,59.2,4.9,62.2
		s-35.5,8.9-36.5,6.9s-3-6.9-3-6.9s3,8.9-1,8.9s-42.5-5.9-41.5-8.9s3-24.7,3-24.7s5.9-36.5,11.8-42.5c3.5-3.3,5.3-8,4.9-12.8
		L148.9,433.9z"/>
	<path id="ba787e0e-2496-4127-9664-864bc1f1b460" class="st6" d="M163.7,426c0,0-12.8-3-14.8,1s4.9,9.9,7.9,9.9s7.9-3,7.9-3
		L163.7,426z"/>
	<circle id="af432612-84fe-4a80-a474-ad6710b59c23" class="st6" cx="137" cy="324.3" r="17.8"/>
	<path id="fc691572-079c-4ac7-a111-0c7206f484e6" class="st6" d="M134.1,337.2c0,0-3,13.8-1,13.8s-14.8,8.9-14.8,8.9l-12.8-2
		l-3.9-5.9c0,0,20.7-13.8,20.7-21.7S134.1,337.2,134.1,337.2z"/>
	<path id="a377c2ac-5aad-4dd5-94e4-d6887260be3a" class="st2" d="M125.2,351c0,0,3-2,3.9-2h7.9c1,0,13.8,3,13.8,3l7.9,44.4
		c0,0-13.8,22.7-3.9,40.5c0,0-3-2-16.8-1s-38.5,3.9-39.5,3.9s-1-7.9,0-9.9s-1-1-1-5.9s-3-13.8-3-13.8l-13.8-50.4
		c0,0,17.8-9.9,20.7-8.9s11.8,3.9,13.8,3C117.3,353,125.2,351,125.2,351z"/>
	<path id="fd50713a-8150-4e39-832b-91f38638a5e4" class="st2" d="M147.9,353l3-1c0,0,5.9-1,12.8,4.9s32.6,23.7,32.6,23.7
		s9.9,7.9,6.9,16.8s-7.9,30.6-22.7,29.6c0,0-8.9,11.8-13.8,9.9s-8.9-9.9-5.9-10.9s10.9-10.9,10.9-10.9l-9.9-18.8h-3l-10.9-5.9
		L147.9,353z"/>
	<path id="a85ddca5-281c-4897-a8aa-82a4133bac02" class="st2" d="M88.7,358.9l-7.9,1c0,0-6.9,3-5.9,15.8s-5.9,71.1-3,78
		c0,0-9.9,33.6-7.9,34.6s13.8,6.9,12.8,3s10.9-31.6,10.9-31.6s13.8-14.8,7.9-35.5v-16.8L88.7,358.9z"/>
	<path id="eb14ef5a-0bc4-48da-8b11-b0e113a7ef46" class="st4" d="M151.8,341.5l-12.6,2.7l-1.6-6.2l0.6,6.4l-20.2,4.4l-0.9-3.4
		l0.3,3.5l-13,2.8l-2.8-26.6c-2.9-10.9,7.6-22.6,18.5-25.4l4.8-1.3c8-2.1,22.6-0.2,24.7,7.8C146.1,320.3,139.9,335.7,151.8,341.5z"
		/>
</g>
</svg>
